<svg width="32" height="33" viewBox="0 0 32 33" fill="none" xmlns="http://www.w3.org/2000/svg">
<rect x="0.5" y="1" width="31" height="31" rx="15.5" stroke="#EEECE8" stroke-opacity="0.5"/>
<path d="M12.3839 13.125H10.2411C9.64935 13.125 9.16966 13.6047 9.16966 14.1964L8.36607 14.1964C7.92227 14.1964 7.5625 14.5162 7.5625 14.9107V17.7678C7.5625 18.1623 7.92227 18.4821 8.36607 18.4821L9.16966 18.4821C9.16966 19.0739 9.64935 19.5536 10.2411 19.5536H12.3839C12.9757 19.5536 13.4554 19.0739 13.4554 18.4821V14.1964C13.4554 13.6047 12.9757 13.125 12.3839 13.125Z" stroke="#EEECE8" stroke-linecap="round" stroke-linejoin="round"/>
<path d="M19.6161 13.125H21.7589C22.3507 13.125 22.8303 13.6047 22.8303 14.1964L23.6339 14.1964C24.0777 14.1964 24.4375 14.5162 24.4375 14.9107V17.7678C24.4375 18.1623 24.0777 18.4821 23.6339 18.4821L22.8303 18.4821C22.8303 19.0739 22.3507 19.5536 21.7589 19.5536H19.6161C19.0243 19.5536 18.5446 19.0739 18.5446 18.4821V14.1964C18.5446 13.6047 19.0243 13.125 19.6161 13.125Z" stroke="#EEECE8" stroke-linecap="round" stroke-linejoin="round"/>
<path d="M13.4554 16.3393H18.4554" stroke="#EEECE8" stroke-linecap="round" stroke-linejoin="round"/>
</svg>
