<svg width="14" height="15" viewBox="0 0 14 15" fill="none" xmlns="http://www.w3.org/2000/svg">
<g clip-path="url(#clip0_20_470)">
<path d="M7.5 9.5L4.5 10.04L5 7L10.73 1.29C10.823 1.19627 10.9336 1.12188 11.0554 1.07111C11.1773 1.02034 11.308 0.994202 11.44 0.994202C11.572 0.994202 11.7027 1.02034 11.8246 1.07111C11.9464 1.12188 12.057 1.19627 12.15 1.29L13.21 2.35C13.3037 2.44296 13.3781 2.55356 13.4289 2.67542C13.4797 2.79728 13.5058 2.92799 13.5058 3.06C13.5058 3.19201 13.4797 3.32272 13.4289 3.44458C13.3781 3.56644 13.3037 3.67704 13.21 3.77L7.5 9.5Z" stroke="#EEECE8" stroke-linecap="round" stroke-linejoin="round"/>
<path d="M12 10V13C12 13.2652 11.8946 13.5196 11.7071 13.7071C11.5196 13.8946 11.2652 14 11 14H1.5C1.23478 14 0.98043 13.8946 0.792893 13.7071C0.605357 13.5196 0.5 13.2652 0.5 13V3.5C0.5 3.23478 0.605357 2.98043 0.792893 2.79289C0.98043 2.60536 1.23478 2.5 1.5 2.5H4.5" stroke="#EEECE8" stroke-linecap="round" stroke-linejoin="round"/>
</g>
<defs>
<clipPath id="clip0_20_470">
<rect width="14" height="14" fill="white" transform="translate(0 0.5)"/>
</clipPath>
</defs>
</svg>
