<svg width="40" height="40" viewBox="0 0 40 40" fill="none" xmlns="http://www.w3.org/2000/svg">
<rect x="0.5" y="0.5" width="39" height="39" rx="19.5" stroke="#EEECE8" stroke-opacity="0.5"/>
<g clip-path="url(#clip0_20_656)">
<path d="M20.5 22L17.5 22.54L18 19.5L23.73 13.79C23.823 13.6963 23.9336 13.6219 24.0554 13.5711C24.1773 13.5203 24.308 13.4942 24.44 13.4942C24.572 13.4942 24.7027 13.5203 24.8246 13.5711C24.9464 13.6219 25.057 13.6963 25.15 13.79L26.21 14.85C26.3037 14.943 26.3781 15.0536 26.4289 15.1754C26.4797 15.2973 26.5058 15.428 26.5058 15.56C26.5058 15.692 26.4797 15.8227 26.4289 15.9446C26.3781 16.0664 26.3037 16.177 26.21 16.27L20.5 22Z" stroke="#EEECE8" stroke-linecap="round" stroke-linejoin="round"/>
<path d="M25 22.5V25.5C25 25.7652 24.8946 26.0196 24.7071 26.2071C24.5196 26.3946 24.2652 26.5 24 26.5H14.5C14.2348 26.5 13.9804 26.3946 13.7929 26.2071C13.6054 26.0196 13.5 25.7652 13.5 25.5V16C13.5 15.7348 13.6054 15.4804 13.7929 15.2929C13.9804 15.1054 14.2348 15 14.5 15H17.5" stroke="#EEECE8" stroke-linecap="round" stroke-linejoin="round"/>
</g>
<defs>
<clipPath id="clip0_20_656">
<rect width="14" height="14" fill="white" transform="translate(13 13)"/>
</clipPath>
</defs>
</svg>
