<svg width="32" height="32" viewBox="0 0 32 32" fill="none" xmlns="http://www.w3.org/2000/svg">
<g clip-path="url(#clip0_153_3786)">
<path d="M31.5 16C31.5 24.5604 24.5604 31.5 16 31.5C7.43959 31.5 0.5 24.5604 0.5 16C0.5 7.43959 7.43959 0.5 16 0.5C24.5604 0.5 31.5 7.43959 31.5 16Z" stroke="#EEECE8" stroke-opacity="0.5" stroke-linecap="round" stroke-linejoin="round"/>
<path d="M21.3847 16.2407C21.3847 15.8785 21.3526 15.5347 21.2976 15.2H16.117V17.2676H19.0832C18.9503 17.9462 18.5606 18.5192 17.9829 18.9089V20.2843H19.7526C20.7887 19.3261 21.3847 17.9141 21.3847 16.2407Z" fill="#EEECE8"/>
<path d="M16.117 12.7931C16.9285 12.7931 17.6528 13.0727 18.2259 13.6183L19.7939 12.0504C18.8448 11.161 17.6024 10.6154 16.117 10.6154C13.9668 10.6154 12.1101 11.8532 11.2069 13.6504L13.0316 15.067C13.4671 13.7604 14.682 12.7931 16.117 12.7931Z" fill="#EEECE8"/>
<path fill-rule="evenodd" clip-rule="evenodd" d="M16.117 21.6184C13.9668 21.6184 12.1101 20.3806 11.2069 18.5834L13.0316 17.1668C13.4671 18.4734 14.682 19.4407 16.117 19.4407C16.8597 19.4407 17.4878 19.239 17.9829 18.9089L19.7526 20.2843C18.8448 21.1233 17.6024 21.6184 16.117 21.6184ZM13.0316 15.067V13.6504H11.2069L13.0316 15.067Z" fill="#EEECE8"/>
<path d="M11.2069 17.1668H13.0316C12.9169 16.8367 12.8573 16.4837 12.8573 16.1169C12.8573 15.7501 12.9215 15.3971 13.0316 15.067L11.2069 13.6504C10.831 14.3931 10.6155 15.2275 10.6155 16.1169C10.6155 17.0063 10.831 17.8407 11.2069 18.5834V17.1668Z" fill="#EEECE8"/>
<path d="M13.0316 17.1668H11.2069V18.5834L13.0316 17.1668Z" fill="#EEECE8"/>
</g>
<defs>
<clipPath id="clip0_153_3786">
<rect width="32" height="32" fill="white"/>
</clipPath>
</defs>
</svg>
