<svg width="24" height="24" viewBox="0 0 24 24" fill="none" xmlns="http://www.w3.org/2000/svg">
<path d="M18 8.57143H19.7143C19.9416 8.57143 20.1596 8.66173 20.3204 8.82248C20.4811 8.98322 20.5714 9.20124 20.5714 9.42857V22.2857C20.5714 22.513 20.4811 22.7311 20.3204 22.8918C20.1596 23.0525 19.9416 23.1429 19.7143 23.1429H4.28573C4.0584 23.1429 3.84039 23.0525 3.67964 22.8918C3.51889 22.7311 3.42859 22.513 3.42859 22.2857V9.42857C3.42859 9.20124 3.51889 8.98322 3.67964 8.82248C3.84039 8.66173 4.0584 8.57143 4.28573 8.57143H6.00002" stroke="#EEECE8" stroke-linecap="round" stroke-linejoin="round"/>
<path d="M12 12.8571V0.857147" stroke="#EEECE8" stroke-linecap="round" stroke-linejoin="round"/>
<path d="M8.57141 4.28572L12 0.857147L15.4286 4.28572" stroke="#EEECE8" stroke-linecap="round" stroke-linejoin="round"/>
</svg>
